<?xml version="1.0" encoding="UTF-8"?>
<!DOCTYPE svg PUBLIC "-//W3C//DTD SVG 1.1//EN" "http://www.w3.org/Graphics/SVG/1.1/DTD/svg11.dtd">
<svg xmlns="http://www.w3.org/2000/svg" version="1.1" width="96px" height="96px" style="shape-rendering:geometricPrecision; text-rendering:geometricPrecision; image-rendering:optimizeQuality; fill-rule:evenodd; clip-rule:evenodd" xmlns:xlink="http://www.w3.org/1999/xlink">
<g><path style="opacity:0.39" fill="#000000" d="M 20.5,13.5 C 35.6715,12.5048 40.6715,19.1715 35.5,33.5C 29.4246,38.4069 23.0912,38.7402 16.5,34.5C 13.6383,30.2668 12.805,25.6001 14,20.5C 15.425,17.3937 17.5916,15.0604 20.5,13.5 Z M 22.5,20.5 C 30.4863,19.998 32.4863,23.1647 28.5,30C 20.424,30.8047 18.424,27.638 22.5,20.5 Z"/></g>
<g><path style="opacity:0.39" fill="#000000" d="M 64.5,13.5 C 79.6715,12.5048 84.6715,19.1715 79.5,33.5C 73.4246,38.4069 67.0912,38.7402 60.5,34.5C 57.6383,30.2668 56.805,25.6001 58,20.5C 59.425,17.3937 61.5916,15.0604 64.5,13.5 Z M 66.5,20.5 C 74.4863,19.998 76.4863,23.1647 72.5,30C 64.424,30.8047 62.424,27.638 66.5,20.5 Z"/></g>
<g><path style="opacity:0.39" fill="#000000" d="M 42.5,33.5 C 57.6715,32.5048 62.6715,39.1715 57.5,53.5C 51.4246,58.4069 45.0912,58.7402 38.5,54.5C 35.6383,50.2668 34.805,45.6001 36,40.5C 37.425,37.3937 39.5916,35.0604 42.5,33.5 Z M 44.5,40.5 C 52.4863,39.998 54.4863,43.1647 50.5,50C 42.424,50.8047 40.424,47.638 44.5,40.5 Z"/></g>
<g><path style="opacity:0.402" fill="#000000" d="M 10.5,41.5 C 17.8333,41.5 25.1667,41.5 32.5,41.5C 32.5,43.5 32.5,45.5 32.5,47.5C 26.2424,47.1903 20.0758,47.5236 14,48.5C 12.8588,53.3838 14.6921,56.5504 19.5,58C 24.1024,58.3885 28.4357,58.5552 32.5,58.5C 29.9763,60.1901 27.9763,62.3568 26.5,65C 8.53904,65.556 3.2057,57.7227 10.5,41.5 Z"/></g>
<g><path style="opacity:0.402" fill="#000000" d="M 62.5,41.5 C 69.8409,41.3337 77.1742,41.5003 84.5,42C 87.0126,44.3959 88.0126,47.3959 87.5,51C 88.1055,58.4051 84.7721,63.0718 77.5,65C 74.5,65.6667 71.5,65.6667 68.5,65C 66.471,62.3546 64.6377,59.8546 63,57.5C 68.9618,59.2535 74.6284,58.5868 80,55.5C 81.373,53.3046 81.7063,50.9712 81,48.5C 74.9242,47.5236 68.7576,47.1903 62.5,47.5C 62.5,45.5 62.5,43.5 62.5,41.5 Z"/></g>
<g><path style="opacity:0.415" fill="#000000" d="M 32.5,61.5 C 42.5056,61.3335 52.5056,61.5002 62.5,62C 63.3333,62.8333 64.1667,63.6667 65,64.5C 68.2497,74.5124 65.0831,81.3457 55.5,85C 47.7691,86.3967 40.4358,85.3967 33.5,82C 30.1142,79.1308 28.7809,75.4641 29.5,71C 29.0093,67.2459 30.0093,64.0792 32.5,61.5 Z M 36.5,67.5 C 43.8409,67.3337 51.1742,67.5003 58.5,68C 60.3326,73.0018 58.666,76.3351 53.5,78C 49.5,78.6667 45.5,78.6667 41.5,78C 36.1771,76.189 34.5104,72.689 36.5,67.5 Z"/></g>
</svg>
