<?xml version="1.0" encoding="UTF-8"?>
<!DOCTYPE svg PUBLIC "-//W3C//DTD SVG 1.1//EN" "http://www.w3.org/Graphics/SVG/1.1/DTD/svg11.dtd">
<svg xmlns="http://www.w3.org/2000/svg" version="1.1" width="99px" height="99px" style="shape-rendering:geometricPrecision; text-rendering:geometricPrecision; image-rendering:optimizeQuality; fill-rule:evenodd; clip-rule:evenodd" xmlns:xlink="http://www.w3.org/1999/xlink">
<g><path style="opacity:0.326" fill="#000000" d="M 39.5,1.5 C 48.8745,1.26872 58.2078,1.76872 67.5,3C 69.1458,4.55481 69.4791,6.22147 68.5,8C 69.5,8.33333 70.5,8.66667 71.5,9C 69.7887,10.4352 68.622,12.2686 68,14.5C 66.8061,15.4303 65.4728,16.0969 64,16.5C 59.1519,15.8605 54.3185,15.1938 49.5,14.5C 44.6815,15.1938 39.8481,15.8605 35,16.5C 33.3651,16.1223 31.8651,15.4556 30.5,14.5C 30.1355,12.2674 29.1355,10.434 27.5,9C 28.9769,7.11637 30.3102,5.11637 31.5,3C 34.3647,2.8171 37.0314,2.3171 39.5,1.5 Z M 33.5,6.5 C 43.8387,6.33351 54.172,6.50017 64.5,7C 65.4061,8.69946 65.7394,10.5328 65.5,12.5C 54.8333,13.8333 44.1667,13.8333 33.5,12.5C 33.5,10.5 33.5,8.5 33.5,6.5 Z"/></g>
<g><path style="opacity:0.33" fill="#000000" d="M 18.5,8.5 C 29.0167,8.37517 29.0167,9.2085 18.5,11C 17.6667,11.8333 16.8333,12.6667 16,13.5C 15.8095,38.5016 16.1428,63.5016 17,88.5C 17.5,89.6667 18.3333,90.5 19.5,91C 39.5,91.6667 59.5,91.6667 79.5,91C 80.3081,90.6924 80.9747,90.1924 81.5,89.5C 82.5199,64.5356 83.0199,39.5356 83,14.5C 82.5348,13.0692 81.7014,11.9025 80.5,11C 77.8987,10.0797 75.2321,9.41299 72.5,9C 78.7706,7.38337 82.9372,9.55004 85,15.5C 85.6027,39.8381 85.936,64.1715 86,88.5C 84.5149,93.151 81.3482,95.8177 76.5,96.5C 56.5433,95.6784 36.5433,95.1784 16.5,95C 15.3333,93.8333 14.1667,92.6667 13,91.5C 12.0755,65.1382 12.4089,38.8049 14,12.5C 15.3968,10.9297 16.8968,9.59641 18.5,8.5 Z M 59.5,66.5 C 65.2265,66.8316 66.8932,69.3316 64.5,74C 60.6945,75.9392 58.0278,74.7725 56.5,70.5C 57.5244,69.1482 58.5244,67.8149 59.5,66.5 Z"/></g>
<g><path style="opacity:0.314" fill="#000000" d="M 56.5,28.5 C 71.8294,25.1523 74.3294,29.4856 64,41.5C 63.6053,39.8214 63.772,38.1547 64.5,36.5C 64.2668,35.0683 63.6001,34.5683 62.5,35C 48.9128,48.0023 40.4128,63.8356 37,82.5C 35.043,59.9794 43.543,42.8128 62.5,31C 60.3594,30.4275 58.3594,29.5942 56.5,28.5 Z"/></g>
<g><path style="opacity:0.305" fill="#000000" d="M 29.5,29.5 C 31.3664,30.0138 33.1997,30.6805 35,31.5C 40.5,28.3333 41.6667,29.5 38.5,35C 41.6667,40.5 40.5,41.6667 35,38.5C 29.5,41.6667 28.3333,40.5 31.5,35C 30.6805,33.1997 30.0138,31.3664 29.5,29.5 Z"/></g>
<g><path style="opacity:0.321" fill="#000000" d="M 57.5,62.5 C 65.6417,62.4807 68.8084,66.4807 67,74.5C 66.5348,75.9308 65.7014,77.0975 64.5,78C 54.7223,80.2224 50.889,76.3891 53,66.5C 54.3968,64.9297 55.8968,63.5964 57.5,62.5 Z M 59.5,66.5 C 58.5244,67.8149 57.5244,69.1482 56.5,70.5C 58.0278,74.7725 60.6945,75.9392 64.5,74C 66.8932,69.3316 65.2265,66.8316 59.5,66.5 Z"/></g>
</svg>
